# xmcd
# 
# Track frame offsets:
#     183
#     18660
#     31625
#     51293
#     63075
#     75788
#     95338
#     108225
#     120685
#     134188
#     146393
#     158363
#     173858
#     188040
#     200715
#     211663
#     230903
#     246328
# 
# Disc length: 3471
# 
# Revision: 3
# Processed by: cddbd v1.5.2PL0 Copyright (c) Steve Scherf et al.
# Submitted via: fre:ac v1.0.17
# 
DISCID=ee0d8d12
DTITLE=Elis Regina - Elis, o mito
DYEAR=1993
DGENRE=
TTITLE0=Romaria
TTITLE1=Águas de Março
TTITLE2=Como nossos pais
TTITLE3=Madalena
TTITLE4=Atrás da porta
TTITLE5=Dois pra lá, dois pra cá
TTITLE6=Casa no campo
TTITLE7=Arrastão
TTITLE8=Fascinação (Fascination)
TTITLE9=Nada será como antes
TTITLE10=É com esse que vou
TTITLE11=Vou deitar e rolar (Quaquaraquaqua)
TTITLE12=O mestre sala dos mares
TTITLE13=Casa forte
TTITLE14=Upa Neguinho
TTITLE15=Preciso aprender a ser só
TTITLE16=Aquarela do Brasil - Nega do cabelo duro
TTITLE17=Me deixas louca (Me Vuelves Loco)
EXTD=
EXTT0=
EXTT1=
EXTT2=
EXTT3=
EXTT4=
EXTT5=
EXTT6=
EXTT7=
EXTT8=
EXTT9=
EXTT10=
EXTT11=
EXTT12=
EXTT13=
EXTT14=
EXTT15=
EXTT16=
EXTT17=
PLAYORDER=
